<svg width="247" height="81" viewBox="0 0 247 81" fill="none" xmlns="http://www.w3.org/2000/svg">
<path d="M43.7254 77.8342V78.75H42.8096V77.8342H43.7254ZM46.8465 77.8342V78.75H45.9308V77.8342H46.8465ZM49.9677 77.8342V78.75H49.0519V77.8342H49.9677ZM55.6793 77.199C55.6133 77.7105 55.4236 78.123 55.0936 78.42C54.7636 78.7252 54.3428 78.8738 53.8148 78.8738C53.1713 78.8738 52.6763 78.6757 52.3216 78.2797C51.9751 77.8837 51.7936 77.3475 51.7936 76.6792C51.7936 75.9697 51.9833 75.4087 52.3463 74.9962C52.7176 74.5838 53.2126 74.3692 53.8396 74.3692C54.3676 74.3692 54.7801 74.5012 55.0936 74.7652C55.4071 75.0292 55.5968 75.4005 55.6463 75.8872H54.9203C54.7966 75.2685 54.4418 74.9632 53.8561 74.9632C53.4436 74.9632 53.1218 75.1117 52.8908 75.4087C52.6516 75.7057 52.5361 76.1182 52.5361 76.6298C52.5361 77.1412 52.6433 77.5537 52.8743 77.8507C53.0971 78.1477 53.4106 78.2962 53.8066 78.2962C54.1201 78.2962 54.3841 78.1972 54.5821 78.0157C54.7801 77.826 54.9121 77.5537 54.9698 77.199H55.6793ZM61.0427 78.189V78.7417C60.8942 78.7913 60.7375 78.8243 60.5642 78.8243C60.16 78.8243 59.9537 78.6097 59.9455 78.1972C59.5412 78.6427 59.0297 78.8738 58.4027 78.8738C57.982 78.8738 57.652 78.7665 57.4045 78.552C57.157 78.3375 57.0415 78.0405 57.0415 77.6692C57.0415 76.9102 57.5447 76.4647 58.5512 76.341C58.6172 76.3245 58.708 76.3162 58.84 76.308C59.3185 76.2502 59.6072 76.1842 59.7227 76.1182C59.8465 76.0275 59.9125 75.879 59.9125 75.6645C59.9125 75.1942 59.5907 74.9632 58.9472 74.9632C58.6172 74.9632 58.3615 75.0292 58.1965 75.1612C58.0232 75.2932 57.9242 75.516 57.8912 75.8295H57.2065C57.2147 75.3675 57.3797 75.0127 57.6932 74.7652C58.0067 74.5095 58.4357 74.3857 58.9885 74.3857C59.5825 74.3857 60.028 74.5177 60.325 74.7982C60.4157 74.8807 60.4817 74.9962 60.5312 75.1447C60.5725 75.285 60.5972 75.4005 60.6055 75.4912C60.6055 75.582 60.6137 75.7222 60.6137 75.9037C60.6137 76.11 60.6055 76.4235 60.5972 76.8442C60.5807 77.2732 60.5807 77.5867 60.5807 77.793C60.5807 77.9497 60.5972 78.057 60.6385 78.123C60.6797 78.189 60.754 78.2137 60.8695 78.2137C60.9107 78.2137 60.9685 78.2055 61.0427 78.189ZM59.9125 76.5472C59.863 76.5802 59.8052 76.6132 59.7557 76.6462C59.698 76.671 59.6237 76.6957 59.5412 76.7122C59.4587 76.7287 59.401 76.737 59.368 76.7452C59.335 76.7535 59.269 76.7617 59.1535 76.7782C59.038 76.7947 58.972 76.803 58.972 76.803C58.7987 76.8195 58.6832 76.836 58.6337 76.8442C58.5842 76.8525 58.4852 76.8772 58.3367 76.9185C58.1882 76.9515 58.0892 77.001 58.0315 77.0505C57.9655 77.1 57.9077 77.166 57.85 77.265C57.7922 77.364 57.7675 77.4795 57.7675 77.6115C57.7675 77.826 57.8417 77.9992 57.9902 78.1312C58.1387 78.255 58.3532 78.321 58.6172 78.321C58.9472 78.321 59.2525 78.222 59.5165 78.024C59.7805 77.826 59.9125 77.5867 59.9125 77.3227V76.5472ZM64.3519 74.493V75.0705H63.5021V77.5537C63.5021 77.694 63.5021 77.7847 63.5021 77.826C63.5021 77.8755 63.5186 77.9332 63.5516 78.0075C63.5764 78.0817 63.6259 78.1312 63.6919 78.1477C63.7579 78.1725 63.8486 78.1807 63.9724 78.1807C64.0714 78.1807 64.2034 78.1725 64.3519 78.156V78.7583C64.1539 78.783 63.9724 78.7913 63.8156 78.7913C63.6176 78.7913 63.4526 78.7748 63.3206 78.7252C63.1886 78.684 63.0814 78.6345 63.0154 78.5767C62.9494 78.5272 62.8999 78.4282 62.8669 78.288C62.8339 78.1477 62.8091 78.0322 62.8091 77.9332C62.8009 77.8342 62.8009 77.6775 62.8009 77.4465V77.4135V77.3722V77.331V75.0705H62.0831V74.493H62.8009V73.2307H63.5021V74.493H64.3519ZM69.7262 78.189V78.7417C69.5777 78.7913 69.4209 78.8243 69.2477 78.8243C68.8434 78.8243 68.6372 78.6097 68.6289 78.1972C68.2247 78.6427 67.7132 78.8738 67.0862 78.8738C66.6654 78.8738 66.3354 78.7665 66.0879 78.552C65.8404 78.3375 65.7249 78.0405 65.7249 77.6692C65.7249 76.9102 66.2282 76.4647 67.2347 76.341C67.3007 76.3245 67.3914 76.3162 67.5234 76.308C68.0019 76.2502 68.2907 76.1842 68.4062 76.1182C68.5299 76.0275 68.5959 75.879 68.5959 75.6645C68.5959 75.1942 68.2742 74.9632 67.6307 74.9632C67.3007 74.9632 67.0449 75.0292 66.8799 75.1612C66.7067 75.2932 66.6077 75.516 66.5747 75.8295H65.8899C65.8982 75.3675 66.0632 75.0127 66.3767 74.7652C66.6902 74.5095 67.1192 74.3857 67.6719 74.3857C68.2659 74.3857 68.7114 74.5177 69.0084 74.7982C69.0992 74.8807 69.1652 74.9962 69.2147 75.1447C69.2559 75.285 69.2807 75.4005 69.2889 75.4912C69.2889 75.582 69.2972 75.7222 69.2972 75.9037C69.2972 76.11 69.2889 76.4235 69.2807 76.8442C69.2642 77.2732 69.2642 77.5867 69.2642 77.793C69.2642 77.9497 69.2807 78.057 69.3219 78.123C69.3632 78.189 69.4374 78.2137 69.5529 78.2137C69.5942 78.2137 69.6519 78.2055 69.7262 78.189ZM68.5959 76.5472C68.5464 76.5802 68.4887 76.6132 68.4392 76.6462C68.3814 76.671 68.3072 76.6957 68.2247 76.7122C68.1422 76.7287 68.0844 76.737 68.0514 76.7452C68.0184 76.7535 67.9524 76.7617 67.8369 76.7782C67.7214 76.7947 67.6554 76.803 67.6554 76.803C67.4822 76.8195 67.3667 76.836 67.3172 76.8442C67.2677 76.8525 67.1687 76.8772 67.0202 76.9185C66.8717 76.9515 66.7727 77.001 66.7149 77.0505C66.6489 77.1 66.5912 77.166 66.5334 77.265C66.4757 77.364 66.4509 77.4795 66.4509 77.6115C66.4509 77.826 66.5252 77.9992 66.6737 78.1312C66.8222 78.255 67.0367 78.321 67.3007 78.321C67.6307 78.321 67.9359 78.222 68.1999 78.024C68.4639 77.826 68.5959 77.5867 68.5959 77.3227V76.5472ZM71.9546 72.876V78.75H71.2451V72.876H71.9546ZM77.3887 74.493L75.5654 79.2945C75.4912 79.4925 75.4252 79.641 75.3757 79.7483C75.3262 79.8555 75.2519 79.971 75.1529 80.103C75.0539 80.235 74.9384 80.3258 74.8064 80.3835C74.6744 80.4413 74.5177 80.466 74.3362 80.466C74.1959 80.466 74.0227 80.4413 73.8164 80.3918V79.7648C74.0144 79.8308 74.1712 79.8555 74.2702 79.8555C74.5012 79.8555 74.6662 79.74 74.7652 79.5008L75.0952 78.7252L73.4039 74.493H74.1959L75.4582 77.8837L76.6544 74.493H77.3887ZM81.9592 74.493V74.955L79.3687 78.156H82.0664V78.75H78.4694V78.2137L81.0104 75.0705H78.6344V74.493H81.9592ZM84.3473 72.876V73.734H83.6378V72.876H84.3473ZM84.3473 74.493V78.75H83.6378V74.493H84.3473ZM86.9186 74.493V75.153C87.2651 74.6415 87.7519 74.3775 88.3706 74.3775C88.8656 74.3775 89.2286 74.5095 89.4514 74.7735C89.6741 75.0375 89.7896 75.417 89.7896 75.9202V78.75H89.0884V76.242C89.0884 76.0357 89.0801 75.8707 89.0636 75.7552C89.0471 75.6397 89.0141 75.5077 88.9646 75.3757C88.9069 75.2437 88.8161 75.1447 88.6841 75.0787C88.5521 75.021 88.3789 74.988 88.1726 74.988C87.3641 74.988 86.9599 75.4995 86.9599 76.5225V78.75H86.2586V74.493H86.9186ZM95.3556 74.493V78.2962C95.3556 78.6592 95.3309 78.948 95.2979 79.146C95.2566 79.344 95.1824 79.5338 95.0751 79.707C94.7616 80.2268 94.2006 80.4825 93.3921 80.4825C92.9136 80.4825 92.5094 80.3918 92.1794 80.1938C91.8494 79.9958 91.6596 79.674 91.6019 79.2285H92.3196C92.4021 79.707 92.7734 79.938 93.4169 79.938C93.8541 79.938 94.1676 79.8308 94.3656 79.608C94.5636 79.3935 94.6626 79.0388 94.6791 78.5437L94.6874 78.024C94.4151 78.5437 93.9614 78.7995 93.3261 78.7995C92.7569 78.7995 92.3031 78.6097 91.9649 78.2137C91.6266 77.826 91.4534 77.298 91.4534 76.638C91.4534 76.0192 91.6266 75.4912 91.9566 75.0457C92.2949 74.6002 92.7651 74.3775 93.3674 74.3775C93.6644 74.3775 93.9284 74.4435 94.1594 74.5672C94.3904 74.6992 94.5801 74.8807 94.7121 75.1117V74.493H95.3556ZM93.4004 74.9962C93.0209 74.9962 92.7156 75.1365 92.5011 75.4335C92.2866 75.7305 92.1794 76.1347 92.1794 76.6545C92.1794 77.1165 92.2866 77.496 92.5176 77.7765C92.7404 78.057 93.0374 78.2055 93.4169 78.2055C93.8046 78.2055 94.1099 78.057 94.3326 77.76C94.5554 77.463 94.6709 77.0505 94.6709 76.539C94.6709 76.0522 94.5554 75.6727 94.3326 75.4005C94.1099 75.1282 93.7964 74.9962 93.4004 74.9962ZM99.9388 74.493H100.723L101.927 78.0652L103.099 74.493H103.833L102.274 78.75H101.523L99.9388 74.493ZM106.044 72.876V73.734H105.334V72.876H106.044ZM106.044 74.493V78.75H105.334V74.493H106.044ZM111.115 75.7305H110.414C110.364 75.219 110.018 74.955 109.374 74.955C109.102 74.955 108.887 75.0127 108.739 75.1117C108.582 75.219 108.508 75.3592 108.508 75.5325C108.508 75.582 108.508 75.6315 108.524 75.681C108.533 75.7305 108.549 75.7717 108.582 75.8047C108.615 75.8377 108.64 75.8707 108.665 75.8955C108.689 75.9285 108.731 75.9532 108.788 75.978C108.846 76.0027 108.887 76.0192 108.92 76.0357C108.953 76.0522 109.003 76.077 109.085 76.0935C109.168 76.11 109.226 76.1265 109.259 76.1347C109.292 76.143 109.349 76.1595 109.448 76.176C109.547 76.2007 109.605 76.2172 109.638 76.2172C109.836 76.2667 109.993 76.2997 110.092 76.3245C110.191 76.3575 110.331 76.407 110.513 76.4812C110.694 76.5555 110.826 76.6298 110.925 76.7122C111.016 76.7947 111.098 76.902 111.173 77.0422C111.247 77.1825 111.288 77.3392 111.288 77.5125C111.288 77.925 111.123 78.2632 110.801 78.5107C110.48 78.7583 110.051 78.882 109.523 78.882C108.945 78.882 108.5 78.7583 108.186 78.5025C107.873 78.255 107.708 77.8837 107.691 77.4052H108.384C108.417 78.0075 108.805 78.3045 109.539 78.3045C109.853 78.3045 110.1 78.2467 110.29 78.1147C110.48 77.9827 110.579 77.8095 110.579 77.595C110.579 77.4547 110.529 77.3392 110.43 77.2402C110.331 77.1495 110.216 77.0835 110.1 77.0422C109.976 77.001 109.803 76.9515 109.58 76.8937C109.547 76.8937 109.523 76.8855 109.506 76.8772C109.457 76.869 109.349 76.8442 109.184 76.8112C109.019 76.7782 108.904 76.7452 108.838 76.7205C108.764 76.704 108.656 76.671 108.524 76.6215C108.392 76.572 108.293 76.5225 108.227 76.473C108.161 76.4235 108.087 76.3575 108.005 76.275C107.922 76.1925 107.873 76.1017 107.84 75.9945C107.807 75.8872 107.79 75.7635 107.79 75.6232C107.79 75.2437 107.93 74.9385 108.227 74.7075C108.524 74.4847 108.92 74.3692 109.415 74.3692C109.91 74.3692 110.323 74.493 110.636 74.724C110.95 74.9632 111.115 75.3015 111.115 75.7305ZM113.648 72.876V73.734H112.938V72.876H113.648ZM113.648 74.493V78.75H112.938V74.493H113.648ZM117.424 74.3692C118.067 74.3692 118.562 74.5672 118.925 74.9632C119.28 75.351 119.461 75.8955 119.461 76.5967C119.461 77.3227 119.28 77.8837 118.925 78.2797C118.562 78.684 118.059 78.882 117.415 78.882C116.764 78.882 116.252 78.684 115.889 78.288C115.518 77.892 115.336 77.3475 115.336 76.638C115.336 75.945 115.518 75.3922 115.897 74.9797C116.269 74.5755 116.78 74.3692 117.424 74.3692ZM117.407 74.9632C116.995 74.9632 116.665 75.1117 116.425 75.4087C116.178 75.714 116.062 76.1182 116.062 76.6215C116.062 77.1495 116.178 77.5537 116.417 77.8507C116.656 78.1477 116.995 78.288 117.424 78.288C117.836 78.288 118.158 78.1395 118.389 77.8425C118.62 77.5455 118.744 77.1412 118.744 76.6132C118.744 76.11 118.62 75.7057 118.381 75.4087C118.141 75.1117 117.82 74.9632 117.407 74.9632ZM121.781 74.493V75.153C122.128 74.6415 122.615 74.3775 123.233 74.3775C123.728 74.3775 124.091 74.5095 124.314 74.7735C124.537 75.0375 124.652 75.417 124.652 75.9202V78.75H123.951V76.242C123.951 76.0357 123.943 75.8707 123.926 75.7552C123.91 75.6397 123.877 75.5077 123.827 75.3757C123.77 75.2437 123.679 75.1447 123.547 75.0787C123.415 75.021 123.242 74.988 123.035 74.988C122.227 74.988 121.823 75.4995 121.823 76.5225V78.75H121.121V74.493H121.781ZM130.301 78.189V78.7417C130.152 78.7913 129.996 78.8243 129.822 78.8243C129.418 78.8243 129.212 78.6097 129.204 78.1972C128.799 78.6427 128.288 78.8738 127.661 78.8738C127.24 78.8738 126.91 78.7665 126.663 78.552C126.415 78.3375 126.3 78.0405 126.3 77.6692C126.3 76.9102 126.803 76.4647 127.809 76.341C127.875 76.3245 127.966 76.3162 128.098 76.308C128.577 76.2502 128.865 76.1842 128.981 76.1182C129.105 76.0275 129.171 75.879 129.171 75.6645C129.171 75.1942 128.849 74.9632 128.205 74.9632C127.875 74.9632 127.62 75.0292 127.455 75.1612C127.281 75.2932 127.182 75.516 127.149 75.8295H126.465C126.473 75.3675 126.638 75.0127 126.951 74.7652C127.265 74.5095 127.694 74.3857 128.247 74.3857C128.841 74.3857 129.286 74.5177 129.583 74.7982C129.674 74.8807 129.74 74.9962 129.789 75.1447C129.831 75.285 129.855 75.4005 129.864 75.4912C129.864 75.582 129.872 75.7222 129.872 75.9037C129.872 76.11 129.864 76.4235 129.855 76.8442C129.839 77.2732 129.839 77.5867 129.839 77.793C129.839 77.9497 129.855 78.057 129.897 78.123C129.938 78.189 130.012 78.2137 130.128 78.2137C130.169 78.2137 130.227 78.2055 130.301 78.189ZM129.171 76.5472C129.121 76.5802 129.063 76.6132 129.014 76.6462C128.956 76.671 128.882 76.6957 128.799 76.7122C128.717 76.7287 128.659 76.737 128.626 76.7452C128.593 76.7535 128.527 76.7617 128.412 76.7782C128.296 76.7947 128.23 76.803 128.23 76.803C128.057 76.8195 127.941 76.836 127.892 76.8442C127.842 76.8525 127.743 76.8772 127.595 76.9185C127.446 76.9515 127.347 77.001 127.29 77.0505C127.224 77.1 127.166 77.166 127.108 77.265C127.05 77.364 127.026 77.4795 127.026 77.6115C127.026 77.826 127.1 77.9992 127.248 78.1312C127.397 78.255 127.611 78.321 127.875 78.321C128.205 78.321 128.511 78.222 128.775 78.024C129.039 77.826 129.171 77.5867 129.171 77.3227V76.5472ZM134.006 74.394L133.998 75.1282C133.948 75.12 133.89 75.12 133.816 75.12C133.593 75.12 133.395 75.153 133.23 75.219C133.065 75.285 132.942 75.3757 132.843 75.483C132.744 75.5985 132.669 75.7305 132.603 75.8955C132.546 76.0605 132.504 76.2255 132.488 76.3905C132.471 76.5555 132.463 76.7452 132.463 76.9515V78.75H131.762V74.493H132.43V75.4087C132.711 74.7322 133.23 74.394 134.006 74.394ZM138.882 74.493L137.059 79.2945C136.984 79.4925 136.918 79.641 136.869 79.7483C136.819 79.8555 136.745 79.971 136.646 80.103C136.547 80.235 136.432 80.3258 136.3 80.3835C136.168 80.4413 136.011 80.466 135.829 80.466C135.689 80.466 135.516 80.4413 135.31 80.3918V79.7648C135.508 79.8308 135.664 79.8555 135.763 79.8555C135.994 79.8555 136.159 79.74 136.258 79.5008L136.588 78.7252L134.897 74.493H135.689L136.951 77.8837L138.148 74.493H138.882ZM144.173 72.876V78.75H143.463V72.876H144.173ZM149.722 77.4052C149.508 78.3952 148.889 78.8903 147.866 78.8903C147.239 78.8903 146.744 78.7005 146.389 78.3045C146.035 77.9167 145.861 77.3722 145.861 76.6792C145.861 75.9945 146.043 75.4417 146.406 75.0127C146.769 74.5838 147.247 74.3692 147.841 74.3692C148.493 74.3692 148.98 74.592 149.293 75.0375C149.607 75.483 149.772 76.0357 149.772 76.7122V76.8112H146.571L146.563 76.8607C146.563 77.3145 146.678 77.6692 146.917 77.925C147.148 78.189 147.478 78.3127 147.891 78.3127C148.196 78.3127 148.435 78.2467 148.617 78.0982C148.798 77.958 148.939 77.727 149.038 77.4052H149.722ZM149.046 76.242C149.013 75.8377 148.889 75.5242 148.675 75.2932C148.46 75.0622 148.171 74.9467 147.825 74.9467C147.478 74.9467 147.198 75.0622 146.975 75.2932C146.744 75.5242 146.612 75.846 146.571 76.242H149.046ZM155.11 78.189V78.7417C154.962 78.7913 154.805 78.8243 154.632 78.8243C154.228 78.8243 154.021 78.6097 154.013 78.1972C153.609 78.6427 153.097 78.8738 152.47 78.8738C152.05 78.8738 151.72 78.7665 151.472 78.552C151.225 78.3375 151.109 78.0405 151.109 77.6692C151.109 76.9102 151.612 76.4647 152.619 76.341C152.685 76.3245 152.776 76.3162 152.908 76.308C153.386 76.2502 153.675 76.1842 153.79 76.1182C153.914 76.0275 153.98 75.879 153.98 75.6645C153.98 75.1942 153.658 74.9632 153.015 74.9632C152.685 74.9632 152.429 75.0292 152.264 75.1612C152.091 75.2932 151.992 75.516 151.959 75.8295H151.274C151.282 75.3675 151.447 75.0127 151.761 74.7652C152.074 74.5095 152.503 74.3857 153.056 74.3857C153.65 74.3857 154.096 74.5177 154.393 74.7982C154.483 74.8807 154.549 74.9962 154.599 75.1447C154.64 75.285 154.665 75.4005 154.673 75.4912C154.673 75.582 154.681 75.7222 154.681 75.9037C154.681 76.11 154.673 76.4235 154.665 76.8442C154.648 77.2732 154.648 77.5867 154.648 77.793C154.648 77.9497 154.665 78.057 154.706 78.123C154.747 78.189 154.822 78.2137 154.937 78.2137C154.978 78.2137 155.036 78.2055 155.11 78.189ZM153.98 76.5472C153.931 76.5802 153.873 76.6132 153.823 76.6462C153.766 76.671 153.691 76.6957 153.609 76.7122C153.526 76.7287 153.469 76.737 153.436 76.7452C153.403 76.7535 153.337 76.7617 153.221 76.7782C153.106 76.7947 153.04 76.803 153.04 76.803C152.866 76.8195 152.751 76.836 152.701 76.8442C152.652 76.8525 152.553 76.8772 152.404 76.9185C152.256 76.9515 152.157 77.001 152.099 77.0505C152.033 77.1 151.975 77.166 151.918 77.265C151.86 77.364 151.835 77.4795 151.835 77.6115C151.835 77.826 151.909 77.9992 152.058 78.1312C152.206 78.255 152.421 78.321 152.685 78.321C153.015 78.321 153.32 78.222 153.584 78.024C153.848 77.826 153.98 77.5867 153.98 77.3227V76.5472ZM160.391 72.876V78.75H159.731V78.123C159.459 78.618 158.989 78.8655 158.329 78.8655C157.718 78.8655 157.24 78.6675 156.885 78.2632C156.53 77.859 156.357 77.3062 156.357 76.6132C156.357 75.9697 156.522 75.4417 156.852 75.0127C157.182 74.5838 157.669 74.3692 158.296 74.3692C158.906 74.3692 159.368 74.6002 159.69 75.0622V72.876H160.391ZM158.387 74.9715C157.982 74.9715 157.661 75.12 157.43 75.4087C157.199 75.7057 157.083 76.1017 157.083 76.5967C157.083 77.1165 157.199 77.529 157.438 77.8342C157.677 78.1395 157.999 78.288 158.403 78.288C158.807 78.288 159.129 78.1477 159.36 77.8507C159.591 77.5537 159.707 77.1495 159.707 76.6215C159.707 76.1595 159.591 75.7635 159.377 75.45C159.162 75.1365 158.832 74.9715 158.387 74.9715ZM165.867 77.4052C165.653 78.3952 165.034 78.8903 164.011 78.8903C163.384 78.8903 162.889 78.7005 162.534 78.3045C162.18 77.9167 162.006 77.3722 162.006 76.6792C162.006 75.9945 162.188 75.4417 162.551 75.0127C162.914 74.5838 163.392 74.3692 163.986 74.3692C164.638 74.3692 165.125 74.592 165.438 75.0375C165.752 75.483 165.917 76.0357 165.917 76.7122V76.8112H162.716L162.708 76.8607C162.708 77.3145 162.823 77.6692 163.062 77.925C163.293 78.189 163.623 78.3127 164.036 78.3127C164.341 78.3127 164.58 78.2467 164.762 78.0982C164.943 77.958 165.084 77.727 165.183 77.4052H165.867ZM165.191 76.242C165.158 75.8377 165.034 75.5242 164.82 75.2932C164.605 75.0622 164.316 74.9467 163.97 74.9467C163.623 74.9467 163.343 75.0622 163.12 75.2932C162.889 75.5242 162.757 75.846 162.716 76.242H165.191ZM169.663 74.394L169.655 75.1282C169.606 75.12 169.548 75.12 169.474 75.12C169.251 75.12 169.053 75.153 168.888 75.219C168.723 75.285 168.599 75.3757 168.5 75.483C168.401 75.5985 168.327 75.7305 168.261 75.8955C168.203 76.0605 168.162 76.2255 168.145 76.3905C168.129 76.5555 168.121 76.7452 168.121 76.9515V78.75H167.419V74.493H168.088V75.4087C168.368 74.7322 168.888 74.394 169.663 74.394ZM174.135 75.7305H173.434C173.384 75.219 173.038 74.955 172.394 74.955C172.122 74.955 171.907 75.0127 171.759 75.1117C171.602 75.219 171.528 75.3592 171.528 75.5325C171.528 75.582 171.528 75.6315 171.544 75.681C171.553 75.7305 171.569 75.7717 171.602 75.8047C171.635 75.8377 171.66 75.8707 171.685 75.8955C171.709 75.9285 171.751 75.9532 171.808 75.978C171.866 76.0027 171.907 76.0192 171.94 76.0357C171.973 76.0522 172.023 76.077 172.105 76.0935C172.188 76.11 172.246 76.1265 172.279 76.1347C172.312 76.143 172.369 76.1595 172.468 76.176C172.567 76.2007 172.625 76.2172 172.658 76.2172C172.856 76.2667 173.013 76.2997 173.112 76.3245C173.211 76.3575 173.351 76.407 173.533 76.4812C173.714 76.5555 173.846 76.6298 173.945 76.7122C174.036 76.7947 174.118 76.902 174.193 77.0422C174.267 77.1825 174.308 77.3392 174.308 77.5125C174.308 77.925 174.143 78.2632 173.821 78.5107C173.5 78.7583 173.071 78.882 172.543 78.882C171.965 78.882 171.52 78.7583 171.206 78.5025C170.893 78.255 170.728 77.8837 170.711 77.4052H171.404C171.437 78.0075 171.825 78.3045 172.559 78.3045C172.873 78.3045 173.12 78.2467 173.31 78.1147C173.5 77.9827 173.599 77.8095 173.599 77.595C173.599 77.4547 173.549 77.3392 173.45 77.2402C173.351 77.1495 173.236 77.0835 173.12 77.0422C172.996 77.001 172.823 76.9515 172.6 76.8937C172.567 76.8937 172.543 76.8855 172.526 76.8772C172.477 76.869 172.369 76.8442 172.204 76.8112C172.039 76.7782 171.924 76.7452 171.858 76.7205C171.784 76.704 171.676 76.671 171.544 76.6215C171.412 76.572 171.313 76.5225 171.247 76.473C171.181 76.4235 171.107 76.3575 171.025 76.275C170.942 76.1925 170.893 76.1017 170.86 75.9945C170.827 75.8872 170.81 75.7635 170.81 75.6232C170.81 75.2437 170.95 74.9385 171.247 74.7075C171.544 74.4847 171.94 74.3692 172.435 74.3692C172.93 74.3692 173.343 74.493 173.656 74.724C173.97 74.9632 174.135 75.3015 174.135 75.7305ZM176.585 72.876V75.0952C176.899 74.625 177.361 74.3857 177.979 74.3857C178.936 74.3857 179.415 74.8725 179.415 75.8377V78.75H178.714V76.0027C178.714 75.681 178.639 75.4335 178.507 75.2602C178.375 75.087 178.128 74.9962 177.781 74.9962C177.352 74.9962 177.039 75.1365 176.857 75.4087C176.676 75.6892 176.585 76.077 176.585 76.5885V78.75H175.884V72.876H176.585ZM181.994 72.876V73.734H181.285V72.876H181.994ZM181.994 74.493V78.75H181.285V74.493H181.994ZM184.525 74.493V75.0952C184.83 74.6085 185.308 74.361 185.96 74.361C186.554 74.361 187.024 74.5672 187.371 74.9632C187.717 75.3675 187.899 75.912 187.899 76.5967C187.899 77.2897 187.726 77.8342 187.379 78.2467C187.033 78.6592 186.571 78.8573 185.993 78.8573C185.383 78.8573 184.904 78.6262 184.566 78.156V80.3918H183.865V74.493H184.525ZM185.853 74.9467C185.44 74.9467 185.119 75.0952 184.888 75.3922C184.657 75.6892 184.541 76.0935 184.541 76.605C184.541 77.1247 184.657 77.529 184.896 77.826C185.135 78.123 185.465 78.2715 185.878 78.2715C186.274 78.2715 186.595 78.123 186.826 77.826C187.057 77.529 187.173 77.1247 187.173 76.6132C187.173 76.0935 187.049 75.6892 186.818 75.3922C186.587 75.0952 186.265 74.9467 185.853 74.9467ZM194.541 72.8595V73.47C194.417 73.4535 194.285 73.437 194.153 73.437C193.93 73.437 193.782 73.4782 193.716 73.5442C193.65 73.6185 193.617 73.7752 193.617 74.0062V74.493H194.434V75.0705H193.617V78.75H192.907V75.0705H192.19V74.493H192.907V73.9237C192.907 73.5442 193.006 73.2637 193.204 73.0905C193.402 72.9172 193.691 72.8265 194.087 72.8265C194.203 72.8265 194.359 72.843 194.541 72.8595ZM197.708 74.3692C198.351 74.3692 198.846 74.5672 199.209 74.9632C199.564 75.351 199.746 75.8955 199.746 76.5967C199.746 77.3227 199.564 77.8837 199.209 78.2797C198.846 78.684 198.343 78.882 197.7 78.882C197.048 78.882 196.536 78.684 196.173 78.288C195.802 77.892 195.621 77.3475 195.621 76.638C195.621 75.945 195.802 75.3922 196.182 74.9797C196.553 74.5755 197.064 74.3692 197.708 74.3692ZM197.691 74.9632C197.279 74.9632 196.949 75.1117 196.71 75.4087C196.462 75.714 196.347 76.1182 196.347 76.6215C196.347 77.1495 196.462 77.5537 196.701 77.8507C196.941 78.1477 197.279 78.288 197.708 78.288C198.12 78.288 198.442 78.1395 198.673 77.8425C198.904 77.5455 199.028 77.1412 199.028 76.6132C199.028 76.11 198.904 75.7057 198.665 75.4087C198.426 75.1117 198.104 74.9632 197.691 74.9632ZM203.584 74.394L203.576 75.1282C203.526 75.12 203.468 75.12 203.394 75.12C203.171 75.12 202.973 75.153 202.808 75.219C202.643 75.285 202.52 75.3757 202.421 75.483C202.322 75.5985 202.247 75.7305 202.181 75.8955C202.124 76.0605 202.082 76.2255 202.066 76.3905C202.049 76.5555 202.041 76.7452 202.041 76.9515V78.75H201.34V74.493H202.008V75.4087C202.289 74.7322 202.808 74.394 203.584 74.394ZM210.566 72.876L212.859 78.75H211.993L211.341 76.9515H208.875L208.206 78.75H207.381L209.691 72.876H210.566ZM211.11 76.3327L210.112 73.6185L209.097 76.3327H211.11ZM216.031 72.8595V73.47C215.907 73.4535 215.775 73.437 215.643 73.437C215.421 73.437 215.272 73.4782 215.206 73.5442C215.14 73.6185 215.107 73.7752 215.107 74.0062V74.493H215.924V75.0705H215.107V78.75H214.398V75.0705H213.68V74.493H214.398V73.9237C214.398 73.5442 214.497 73.2637 214.695 73.0905C214.893 72.9172 215.181 72.8265 215.577 72.8265C215.693 72.8265 215.85 72.843 216.031 72.8595ZM219.553 74.394L219.545 75.1282C219.495 75.12 219.437 75.12 219.363 75.12C219.14 75.12 218.942 75.153 218.777 75.219C218.612 75.285 218.489 75.3757 218.39 75.483C218.291 75.5985 218.216 75.7305 218.15 75.8955C218.093 76.0605 218.051 76.2255 218.035 76.3905C218.018 76.5555 218.01 76.7452 218.01 76.9515V78.75H217.309V74.493H217.977V75.4087C218.258 74.7322 218.777 74.394 219.553 74.394ZM221.607 72.876V73.734H220.898V72.876H221.607ZM221.607 74.493V78.75H220.898V74.493H221.607ZM227.14 77.199C227.074 77.7105 226.885 78.123 226.555 78.42C226.225 78.7252 225.804 78.8738 225.276 78.8738C224.632 78.8738 224.137 78.6757 223.783 78.2797C223.436 77.8837 223.255 77.3475 223.255 76.6792C223.255 75.9697 223.444 75.4087 223.807 74.9962C224.179 74.5838 224.674 74.3692 225.301 74.3692C225.829 74.3692 226.241 74.5012 226.555 74.7652C226.868 75.0292 227.058 75.4005 227.107 75.8872H226.381C226.258 75.2685 225.903 74.9632 225.317 74.9632C224.905 74.9632 224.583 75.1117 224.352 75.4087C224.113 75.7057 223.997 76.1182 223.997 76.6298C223.997 77.1412 224.104 77.5537 224.335 77.8507C224.558 78.1477 224.872 78.2962 225.268 78.2962C225.581 78.2962 225.845 78.1972 226.043 78.0157C226.241 77.826 226.373 77.5537 226.431 77.199H227.14ZM232.463 78.189V78.7417C232.314 78.7913 232.157 78.8243 231.984 78.8243C231.58 78.8243 231.374 78.6097 231.365 78.1972C230.961 78.6427 230.45 78.8738 229.823 78.8738C229.402 78.8738 229.072 78.7665 228.824 78.552C228.577 78.3375 228.461 78.0405 228.461 77.6692C228.461 76.9102 228.965 76.4647 229.971 76.341C230.037 76.3245 230.128 76.3162 230.26 76.308C230.738 76.2502 231.027 76.1842 231.143 76.1182C231.266 76.0275 231.332 75.879 231.332 75.6645C231.332 75.1942 231.011 74.9632 230.367 74.9632C230.037 74.9632 229.781 75.0292 229.616 75.1612C229.443 75.2932 229.344 75.516 229.311 75.8295H228.626C228.635 75.3675 228.8 75.0127 229.113 74.7652C229.427 74.5095 229.856 74.3857 230.408 74.3857C231.002 74.3857 231.448 74.5177 231.745 74.7982C231.836 74.8807 231.902 74.9962 231.951 75.1447C231.992 75.285 232.017 75.4005 232.025 75.4912C232.025 75.582 232.034 75.7222 232.034 75.9037C232.034 76.11 232.025 76.4235 232.017 76.8442C232.001 77.2732 232.001 77.5867 232.001 77.793C232.001 77.9497 232.017 78.057 232.058 78.123C232.1 78.189 232.174 78.2137 232.289 78.2137C232.331 78.2137 232.388 78.2055 232.463 78.189ZM231.332 76.5472C231.283 76.5802 231.225 76.6132 231.176 76.6462C231.118 76.671 231.044 76.6957 230.961 76.7122C230.879 76.7287 230.821 76.737 230.788 76.7452C230.755 76.7535 230.689 76.7617 230.573 76.7782C230.458 76.7947 230.392 76.803 230.392 76.803C230.219 76.8195 230.103 76.836 230.054 76.8442C230.004 76.8525 229.905 76.8772 229.757 76.9185C229.608 76.9515 229.509 77.001 229.451 77.0505C229.385 77.1 229.328 77.166 229.27 77.265C229.212 77.364 229.187 77.4795 229.187 77.6115C229.187 77.826 229.262 77.9992 229.41 78.1312C229.559 78.255 229.773 78.321 230.037 78.321C230.367 78.321 230.672 78.222 230.936 78.024C231.2 77.826 231.332 77.5867 231.332 77.3227V76.5472ZM238.06 77.8342V78.75H237.144V77.8342H238.06ZM241.14 77.8342V78.75H240.224V77.8342H241.14ZM244.219 77.8342V78.75H243.304V77.8342H244.219Z" fill="white"/>
<path d="M54.0952 42.3614L45.3062 62.5625H44.8667L36.2012 42.3614H38.3985L45.0864 57.9757L51.8979 42.3614H54.0952ZM59.9207 62.5625H57.902V42.3614H59.9207V62.5625ZM75.0022 57.6324C75.0022 59.1613 74.4254 60.4568 73.2719 61.5188C72.1549 62.5533 70.8228 63.0706 69.2756 63.0706C66.767 63.0706 64.7346 61.647 63.1782 58.7997L64.8948 57.7697C66.1033 59.9944 67.4995 61.1068 69.0833 61.1068C70.5848 61.1068 71.6743 60.5255 72.3517 59.3627C72.663 58.8317 72.8187 58.2687 72.8187 57.6736C72.8187 56.9961 72.5898 56.3323 72.132 55.6823C71.5369 54.8309 70.4291 53.8009 68.8087 52.5924C67.1516 51.3656 66.0575 50.3951 65.5265 49.681C64.8124 48.7197 64.4553 47.6898 64.4553 46.5911C64.4553 44.7234 65.261 43.3502 66.8723 42.4713C67.6322 42.0593 68.4608 41.8533 69.358 41.8533C71.2806 41.8533 73.0475 42.9565 74.6589 45.1629L73.0109 46.4126C72.3975 45.6069 71.8757 45.0347 71.4454 44.696C70.8045 44.1924 70.095 43.9407 69.3168 43.9407C68.5386 43.9407 67.8885 44.1741 67.3667 44.6411C66.8174 45.1171 66.5427 45.7397 66.5427 46.5087C66.5427 47.4151 66.9684 48.2894 67.8199 49.1317C68.0671 49.3698 68.9368 50.0427 70.4291 51.1505C71.8024 52.1667 72.8278 53.0822 73.5053 53.897C74.5032 55.1147 75.0022 56.3598 75.0022 57.6324ZM81.7066 62.5625H79.6879V42.3614H81.7066V62.5625ZM107.445 52.4551C107.445 55.4305 106.419 57.9437 104.369 59.9944C102.327 62.0452 99.8185 63.0706 96.843 63.0706C93.8676 63.0706 91.3453 62.059 89.2762 60.0356C87.2071 58.0123 86.1725 55.5175 86.1725 52.5512C86.1725 50.6286 86.6349 48.8387 87.5596 47.1816C88.4843 45.5245 89.7706 44.2153 91.4185 43.254C93.039 42.3202 94.7922 41.8533 96.6782 41.8533C99.7178 41.8533 102.268 42.8558 104.327 44.8608C106.406 46.8932 107.445 49.4247 107.445 52.4551ZM105.357 52.4551C105.357 49.1226 103.934 46.6369 101.086 44.9981C99.7315 44.2199 98.2941 43.8308 96.7744 43.8308C95.2637 43.8308 93.8447 44.2199 92.5172 44.9981C91.1896 45.7763 90.1505 46.8246 89.3998 48.1429C88.649 49.4613 88.2737 50.9307 88.2737 52.5512C88.2737 54.9407 89.0931 56.9641 90.7319 58.6212C92.3707 60.2783 94.3848 61.1068 96.7744 61.1068C98.3307 61.1068 99.7727 60.7314 101.1 59.9807C102.437 59.23 103.481 58.1909 104.231 56.8633C104.982 55.5358 105.357 54.0664 105.357 52.4551ZM121.991 62.5625H112.199V42.3614H114.232V60.6124H121.991V62.5625ZM143.568 62.5625H141.398L138.226 55.9158H129.519L126.361 62.5625H124.108L133.653 42.3614H134.147L143.568 62.5625ZM137.333 53.9657L133.9 46.6461L130.425 53.9657H137.333Z" fill="white"/>
<path d="M149.842 50.8231C149.372 50.6217 148.969 50.521 148.634 50.521C148.121 50.521 147.81 50.6858 147.7 51.0154C147.657 51.1497 147.636 51.5006 147.636 52.0682V53.4141H149.714V54.5127H147.627V63.375H146.345V54.5127H145.036V53.4141H146.345V51.8577C146.345 51.2778 146.385 50.8506 146.464 50.5759C146.586 50.1426 146.836 49.813 147.215 49.5872C147.526 49.4041 147.904 49.3125 148.35 49.3125C148.765 49.3125 149.262 49.3979 149.842 49.5688V50.8231ZM161.533 58.422C161.533 59.8868 161.036 61.1228 160.041 62.1299C159.046 63.1309 157.816 63.6313 156.352 63.6313C154.887 63.6313 153.654 63.1309 152.653 62.1299C151.658 61.1289 151.161 59.8929 151.161 58.422C151.161 57.0426 151.618 55.8463 152.534 54.8331C153.541 53.7162 154.813 53.1577 156.352 53.1577C157.884 53.1577 159.153 53.7131 160.16 54.824C161.076 55.8372 161.533 57.0365 161.533 58.422ZM160.233 58.4495C160.233 57.3508 159.858 56.4048 159.107 55.6113C158.363 54.8118 157.444 54.412 156.352 54.412C155.259 54.412 154.337 54.8118 153.587 55.6113C152.842 56.4048 152.47 57.3508 152.47 58.4495C152.47 59.1575 152.638 59.8197 152.973 60.4362C153.321 61.0709 153.794 61.5592 154.392 61.901C154.99 62.2428 155.644 62.4137 156.352 62.4137C157.865 62.4137 158.985 61.7637 159.712 60.4636C160.059 59.8411 160.233 59.1697 160.233 58.4495ZM172.474 58.303C172.474 59.426 172.367 60.3171 172.154 60.9763C171.861 61.8735 171.327 62.5602 170.551 63.0363C169.904 63.433 169.096 63.6313 168.125 63.6313C166.215 63.6313 164.921 62.8837 164.243 61.3883C163.92 60.6864 163.758 59.6274 163.758 58.2114V53.4141H165.049V58.0649C165.049 59.2124 165.11 59.9937 165.232 60.4087C165.421 61.0435 165.788 61.5378 166.331 61.8918C166.844 62.2214 167.442 62.3862 168.125 62.3862C168.791 62.3862 169.373 62.2306 169.874 61.9193C170.405 61.5836 170.771 61.1136 170.973 60.5094C171.101 60.1249 171.165 59.3101 171.165 58.0649V53.4141H172.474V58.303ZM184.019 63.375H182.746V58.6234C182.746 57.5004 182.697 56.7344 182.6 56.3254C182.282 55.001 181.446 54.3387 180.091 54.3387C179.316 54.3387 178.62 54.5951 178.004 55.1078C177.393 55.6144 176.991 56.2491 176.795 57.0121C176.673 57.4943 176.612 58.3976 176.612 59.722V63.375H175.33V53.4141H176.612V55.1993C177.631 53.8383 178.877 53.1577 180.348 53.1577C181.074 53.1577 181.727 53.3439 182.307 53.7162C182.893 54.0824 183.323 54.592 183.598 55.2451C183.878 55.8921 184.019 56.8931 184.019 58.248V63.375ZM196.717 63.375H195.454V61.663C194.373 62.9752 193.04 63.6313 191.453 63.6313C190.012 63.6313 188.798 63.1125 187.809 62.075C186.833 61.0557 186.344 59.8197 186.344 58.3671C186.344 56.9327 186.842 55.7059 187.837 54.6866C188.838 53.6674 190.055 53.1577 191.49 53.1577C193.131 53.1577 194.453 53.8535 195.454 55.2451V49.5688H196.717V63.375ZM195.536 58.4495C195.536 57.3081 195.161 56.3468 194.41 55.5656C193.665 54.7843 192.725 54.3937 191.59 54.3937C190.064 54.3937 188.926 55.062 188.175 56.3987C187.815 57.0334 187.635 57.7048 187.635 58.4128C187.635 59.1208 187.815 59.7953 188.175 60.4362C188.535 61.0709 189.018 61.5684 189.622 61.9285C190.232 62.2825 190.885 62.4595 191.581 62.4595C192.283 62.4595 192.948 62.2825 193.577 61.9285C194.206 61.5745 194.688 61.0953 195.023 60.4911C195.365 59.8868 195.536 59.2063 195.536 58.4495ZM209.553 63.375H208.289V61.663C207.209 62.9752 205.875 63.6313 204.289 63.6313C202.848 63.6313 201.634 63.1125 200.645 62.075C199.668 61.0557 199.18 59.8197 199.18 58.3671C199.18 56.9327 199.677 55.7059 200.672 54.6866C201.673 53.6674 202.891 53.1577 204.325 53.1577C205.967 53.1577 207.288 53.8535 208.289 55.2451V53.4141H209.553V63.375ZM208.372 58.4495C208.372 57.3081 207.996 56.3468 207.246 55.5656C206.501 54.7843 205.561 54.3937 204.426 54.3937C202.9 54.3937 201.762 55.062 201.011 56.3987C200.651 57.0334 200.471 57.7048 200.471 58.4128C200.471 59.1208 200.651 59.7953 201.011 60.4362C201.371 61.0709 201.853 61.5684 202.458 61.9285C203.068 62.2825 203.721 62.4595 204.417 62.4595C205.119 62.4595 205.784 62.2825 206.413 61.9285C207.041 61.5745 207.523 61.0953 207.859 60.4911C208.201 59.8868 208.372 59.2063 208.372 58.4495ZM216.886 54.5127H214.854V63.375H213.563V54.5127H211.814V53.4141H213.563V49.7153H214.854V53.4141H216.886V54.5127ZM220.31 50.3745C220.31 50.6675 220.207 50.9177 219.999 51.1252C219.792 51.3267 219.541 51.4274 219.248 51.4274C218.961 51.4274 218.714 51.3236 218.507 51.1161C218.299 50.9086 218.195 50.6614 218.195 50.3745C218.195 50.0815 218.296 49.8313 218.498 49.6238C218.705 49.4163 218.955 49.3125 219.248 49.3125C219.541 49.3125 219.792 49.4163 219.999 49.6238C220.207 49.8313 220.31 50.0815 220.31 50.3745ZM219.898 63.375H218.607V53.4141H219.898V63.375ZM232.45 58.422C232.45 59.8868 231.953 61.1228 230.958 62.1299C229.963 63.1309 228.733 63.6313 227.268 63.6313C225.803 63.6313 224.571 63.1309 223.57 62.1299C222.575 61.1289 222.077 59.8929 222.077 58.422C222.077 57.0426 222.535 55.8463 223.451 54.8331C224.458 53.7162 225.73 53.1577 227.268 53.1577C228.8 53.1577 230.07 53.7131 231.077 54.824C231.992 55.8372 232.45 57.0365 232.45 58.422ZM231.15 58.4495C231.15 57.3508 230.775 56.4048 230.024 55.6113C229.279 54.8118 228.361 54.412 227.268 54.412C226.176 54.412 225.254 54.8118 224.503 55.6113C223.759 56.4048 223.386 57.3508 223.386 58.4495C223.386 59.1575 223.554 59.8197 223.89 60.4362C224.238 61.0709 224.711 61.5592 225.309 61.901C225.907 62.2428 226.56 62.4137 227.268 62.4137C228.782 62.4137 229.902 61.7637 230.628 60.4636C230.976 59.8411 231.15 59.1697 231.15 58.4495ZM243.528 63.375H242.255V58.6234C242.255 57.5004 242.207 56.7344 242.109 56.3254C241.792 55.001 240.955 54.3387 239.6 54.3387C238.825 54.3387 238.13 54.5951 237.513 55.1078C236.903 55.6144 236.5 56.2491 236.305 57.0121C236.182 57.4943 236.121 58.3976 236.121 59.722V63.375H234.84V53.4141H236.121V55.1993C237.141 53.8383 238.386 53.1577 239.857 53.1577C240.583 53.1577 241.236 53.3439 241.816 53.7162C242.402 54.0824 242.832 54.592 243.107 55.2451C243.388 55.8921 243.528 56.8931 243.528 58.248V63.375Z" fill="white"/>
<path d="M57.0733 32.1099V38.375H56.2558V32.1099H57.0733ZM59.0871 32.1099V32.7897H54.2463V32.1099H59.0871ZM64.1087 34.8035V35.4791H60.718V34.8035H64.1087ZM60.847 32.1099V38.375H60.0166V32.1099H60.847ZM64.8316 32.1099V38.375H64.0054V32.1099H64.8316ZM70.2878 37.6994V38.375H66.9702V37.6994H70.2878ZM67.138 32.1099V38.375H66.3075V32.1099H67.138ZM69.8489 34.8035V35.4791H66.9702V34.8035H69.8489ZM70.2448 32.1099V32.7897H66.9702V32.1099H70.2448Z" fill="white"/>
<path d="M28.1145 27.9844C28.1145 27.9844 32.1836 40.2497 29.2863 49.7812C26.052 60.4219 18.7863 64.1719 18.7863 64.1719C18.7863 64.1719 29.8957 62.0156 32.427 52.7344C35.5335 41.3438 28.1145 27.9844 28.1145 27.9844Z" fill="white"/>
<path d="M46.9582 12.6562C46.9582 12.6562 47.3801 10.3125 47.9895 9.32812C48.5676 8.39426 51.2238 5.46429 51.5051 5.34375C51.7863 5.22321 53.3801 7.35938 53.0051 12C52.9251 12.989 51.8332 14.1094 51.8332 14.1094C51.8332 14.1094 53.2394 14.6719 53.4738 16.6875C53.6537 18.2344 51.8332 20.25 50.7551 21.9844C49.8532 23.1964 49.5363 24.3281 49.5363 24.3281C49.5363 24.3281 52.1144 25.1719 51.4582 28.9219C51.0562 31.2188 48.5749 34.1815 45.8332 35.9062C41.9895 37.7812 37.6301 39.4219 37.6301 39.4219C37.6301 39.4219 35.1923 33.5386 35.8957 29.7656C36.9094 24.3281 40.7707 21.6562 40.7707 21.6562C40.7707 21.6562 40.1145 18.2344 42.2238 14.7188C42.6457 14.1094 43.5363 12.6562 44.1457 12.3281C45.8262 11.4232 46.9582 12.6562 46.9582 12.6562Z" fill="white"/>
<path d="M23.0051 0C23.0051 0 20.8022 4.96875 20.8022 7.73438C20.8022 12.1875 23.2233 17.2242 25.0679 20.7188C26.3553 23.1576 27.2711 24.75 27.2711 24.75C27.2711 24.75 28.8358 15.8164 27.646 10.4531C26.6838 6.11632 23.0051 0 23.0051 0Z" fill="white"/>
<path d="M4.02061 27C4.02061 27 2.23937 26.4844 1.63 24.5156C1.36495 23.6593 1.06519 22.8445 0.926931 21.9844C0.926931 21.9844 0.695969 20.6608 1.2082 20.2969C2.98935 19.0312 7.67695 24.1875 7.67695 24.1875L7.81757 23.7656C7.81757 23.7656 11.3331 24.3281 14.1457 27.2812C16.9718 30.2485 16.5831 31.9219 16.5831 31.9219C16.5831 31.9219 18.3174 31.6875 19.4893 31.9219C19.9198 32.008 20.5406 32.5562 20.8956 32.9062C24.1618 36.1271 24.552 48.5156 24.552 48.5156C24.552 48.5156 22.1612 49.9688 14.1456 46.125C12.4112 45 8.60782 42.9375 7.62999 39.7031C7.02061 37.6875 8.94244 36.8906 8.94244 36.8906C8.94244 36.8906 7.76773 36.4986 6.41119 35.4375C5.07035 34.3887 3.52344 32.4844 3.22382 31.5C2.23937 28.2656 4.02061 27 4.02061 27Z" fill="white"/>
</svg>
